<?xml version="1.0" encoding="UTF-8" standalone="no"?>
<svg
   xmlns:dc="http://purl.org/dc/elements/1.1/"
   xmlns:cc="http://creativecommons.org/ns#"
   xmlns:rdf="http://www.w3.org/1999/02/22-rdf-syntax-ns#"
   xmlns:svg="http://www.w3.org/2000/svg"
   xmlns="http://www.w3.org/2000/svg"
   xmlns:xlink="http://www.w3.org/1999/xlink"
   xmlns:sodipodi="http://sodipodi.sourceforge.net/DTD/sodipodi-0.dtd"
   xmlns:inkscape="http://www.inkscape.org/namespaces/inkscape"
   width="32px"
   height="32px"
   viewBox="0 0 32 32"
   version="1.1"
   id="svg180"
   sodipodi:docname="icon-fav-hover.svg"
   inkscape:version="1.0.1 (3bc2e813f5, 2020-09-07)">
  <metadata
     id="metadata184">
    <rdf:RDF>
      <cc:Work
         rdf:about="">
        <dc:format>image/svg+xml</dc:format>
        <dc:type
           rdf:resource="http://purl.org/dc/dcmitype/StillImage" />
      </cc:Work>
    </rdf:RDF>
  </metadata>
  <sodipodi:namedview
     pagecolor="#ffffff"
     bordercolor="#666666"
     borderopacity="1"
     objecttolerance="10"
     gridtolerance="10"
     guidetolerance="10"
     inkscape:pageopacity="0"
     inkscape:pageshadow="2"
     inkscape:window-width="1920"
     inkscape:window-height="1016"
     id="namedview182"
     showgrid="false"
     inkscape:zoom="25.279067"
     inkscape:cx="11.245413"
     inkscape:cy="18.695164"
     inkscape:window-x="0"
     inkscape:window-y="27"
     inkscape:window-maximized="1"
     inkscape:current-layer="GIFOS" />
  <!-- Generator: Sketch 63.1 (92452) - https://sketch.com -->
  <title
     id="title164">icon-fav-hover</title>
  <desc
     id="desc166">Created with Sketch.</desc>
  <defs
     id="defs169">
    <path
       d="M16.277005,9.49708565 C17.2350987,8.53854203 18.5348228,8 19.8900901,8 C21.2453574,8 22.5450815,8.53854203 23.5031752,9.49708565 C24.461458,10.4549185 25,11.7546426 25,13.1099099 C25,14.4651772 24.461458,15.7649013 23.5030448,16.7228646 L16.5555186,23.6703908 C16.2485981,23.9773114 15.7509815,23.9773114 15.444061,23.6703908 L8.49653479,16.7228646 C6.50115505,14.7274848 6.50115507,11.492335 8.49653484,9.49695525 C10.4919146,7.50157548 13.7270644,7.50157545 15.7224442,9.4969552 L15.9997898,9.77430079 L16.277005,9.49708565 Z M15.9997898,22.0032043 L21.5585127,16.4444814 L22.3917176,15.6112765 C23.0553247,14.9479809 23.4281615,14.0481719 23.4281615,13.1099099 C23.4281615,12.1716479 23.0553247,11.271839 22.3917176,10.6085433 C21.728161,9.94467529 20.8283521,9.5718385 19.8900901,9.5718385 C18.9518281,9.5718385 18.0520191,9.94467529 17.388593,10.6084129 L16.5555186,11.4414873 C16.2485981,11.7484078 15.7509815,11.7484078 15.444061,11.4414873 L14.6109866,10.6084129 C13.2294479,9.22687423 10.9895312,9.22687425 9.6079925,10.6084129 C8.22645385,11.9899516 8.22645383,14.2298683 9.60799246,15.611407 L15.9997898,22.0032043 Z"
       id="path-1" />
  </defs>
  <g
     id="GIFOS"
     stroke="none"
     stroke-width="1"
     fill="none"
     fill-rule="evenodd">
    <g
       id="00-UI-Kit"
       transform="translate(-858.000000, -2777.000000)">
      <g
         id="icon-fav-hover"
         transform="translate(858.000000, 2777.000000)">
        <rect
           id="Rectangle-Copy-7"
           fill="#FFFFFF"
           fill-rule="nonzero"
           x="0"
           y="0"
           width="32"
           height="32"
           rx="6" />
        <mask
           id="mask-2"
           fill="white">
          <use
             xlink:href="#path-1"
             id="use172" />
        </mask>
        <use
           fill="#572EE5"
           fill-rule="nonzero"
           xlink:href="#path-1"
           id="use175" />
      </g>
    </g>
    <path
       style="fill:#572ee5;fill-opacity:1;stroke:#007900;stroke-width:0.111888;stroke-opacity:1"
       d="M 12.625591,18.546338 C 10.379697,16.290961 9.1697905,14.992766 9.0010835,14.657343 8.6546113,13.968487 8.5783994,12.757107 8.8332594,11.989796 9.0740112,11.26496 9.867772,10.373391 10.617332,9.9858882 11.091257,9.7408811 11.34161,9.6895727 12.083916,9.6853199 c 1.163965,-0.00667 1.6932,0.2347729 2.789846,1.2727511 0.594827,0.563006 0.918617,0.790181 1.126238,0.790181 0.207621,0 0.531411,-0.227175 1.126238,-0.790181 1.074223,-1.0167545 1.62946,-1.2754872 2.733902,-1.2739591 1.109789,0.00154 1.825011,0.3155071 2.566256,1.1265461 0.710941,0.777883 0.947979,1.467201 0.878236,2.553953 -0.0826,1.287024 -0.265729,1.528114 -3.983977,5.244812 l -3.323798,3.322414 z"
       id="path1047" />
    <path
       style="fill:none;stroke:#572ee5;stroke-width:1px;stroke-linecap:butt;stroke-linejoin:miter;stroke-opacity:1"
       d="m 16.243752,11.718447 c 0.199007,-0.05309 0.34044,-0.185237 0.510077,-0.287019 0.207648,-0.124589 0.420885,-0.211432 0.632935,-0.316468 0.03246,-0.01608 0.277269,-0.342494 0.283843,-0.362464 0.0082,-0.02505 -0.01179,-0.05553 0,-0.07912 0.0062,-0.01235 0.09954,-0.06941 0.114262,-0.113767 0.0082,-0.02472 -0.01176,-0.05489 0,-0.07813 0.01554,-0.0307 0.296564,-0.142624 0.345769,-0.191521 0.01635,-0.01625 0.01237,-0.06011 0.02917,-0.07566 0.0629,-0.05818 0.164285,-0.10682 0.236361,-0.15477 0.06076,-0.04042 0.01251,-0.083043 0.07544,-0.1145113 0.110313,-0.055162 0.267502,-0.1266635 0.391414,-0.1577387 0.239824,-0.060144 1.026062,0 1.258165,0 0.135301,0 0.662709,-0.052917 0.766044,0 0.0332,0.017 0.04624,0.06151 0.07912,0.079117 0.07675,0.0411 0.177989,0.011053 0.262024,0.039065 0.03538,0.011794 0.04373,0.067323 0.07912,0.079117 0.02502,0.00834 0.0541,-0.00834 0.07912,0 0.04335,0.014451 0.0802,0.093026 0.118676,0.118676 0.166376,0.110917 0.450246,0.199794 0.54543,0.390162 0.135208,0.270417 0.317282,0.532693 0.506224,0.784616 0.02502,0.03336 0.01026,0.08901 0.03956,0.118675 0.02097,0.02123 0.287735,0.272762 0.302227,0.301476 0.0059,0.01177 0,0.02637 0,0.03956 0.01319,0.02637 0.0232,0.05458 0.03956,0.07912 0.02069,0.03103 0.06723,0.04377 0.07912,0.07912 0.02374,0.07064 -0.01812,0.163883 0,0.236364 0.03005,0.120199 0.06536,0.249407 0.118182,0.355036 0.04538,0.09075 0,0.619878 0,0.746675 0,0.27407 0.03303,1.230799 -0.03956,1.37597 -0.01642,0.03284 -0.06635,0.04304 -0.07789,0.07789 -0.01651,0.04984 0.01573,0.107416 0,0.157504 -0.02943,0.09368 -0.171961,0.212022 -0.224506,0.264572 -0.0172,0.0172 -0.04507,0.160098 -0.07542,0.189881 -0.01831,0.01797 -0.05899,0.01805 -0.07615,0.03659 -0.02999,0.03243 -0.09545,0.181555 -0.117946,0.228823 -0.04338,0.09115 -0.190684,0.188375 -0.264499,0.224939 -0.162184,0.08034 0.04193,-0.0024 -0.03882,0.07765 -0.142107,0.140791 -0.356814,0.23007 -0.51426,0.356026 -0.187605,0.150085 -0.325183,0.362705 -0.512789,0.512789 -0.07425,0.0594 -0.170114,0.091 -0.23735,0.158234 -0.259696,0.259696 -0.508546,0.644143 -0.712052,0.949402 -0.04057,0.06086 -0.117661,0.09737 -0.158234,0.158234 -0.09457,0.141855 -0.147041,0.344341 -0.275919,0.473218 -0.02085,0.02085 -0.05827,0.01871 -0.07912,0.03956 -0.127066,0.127066 -0.138033,0.30547 -0.310823,0.420663 -0.262357,0.174904 -0.536423,0.362759 -0.791168,0.553818 -0.06442,0.04832 -0.125145,0.12191 -0.197792,0.158234 -0.239558,0.119778 -0.407308,0.226363 -0.624144,0.38899 -0.07212,0.05409 -0.09944,0.02082 -0.157239,0.07862 -0.118371,0.118372 -0.277077,0.200926 -0.394097,0.315724 -0.03468,0.03402 -0.07945,0.183212 -0.118183,0.234849 -0.08054,0.107389 -0.196189,0.19719 -0.276414,0.276909 -0.0702,0.06976 -0.08693,0.204618 -0.158233,0.275919 -0.02085,0.02085 -0.05827,0.01871 -0.07912,0.03956 -0.06113,0.06113 -0.150159,0.190069 -0.18869,0.236877 -0.01235,0.015 0.01321,0.06228 0,0.07656 -0.06685,0.07227 -0.208905,0.12974 -0.272717,0.261295 -0.0041,0.0085 -0.273822,0.01112 -0.295933,0 -0.198543,-0.0999 -0.365717,-0.46389 -0.432781,-0.665081 -0.03228,-0.09683 -0.216074,-0.216074 -0.276909,-0.276909 -0.114283,-0.114283 -0.164343,-0.363834 -0.230872,-0.496892 -0.08045,-0.160903 -0.279245,-0.242511 -0.355534,-0.395089 -0.02574,-0.05147 -0.01784,-0.117383 -0.07912,-0.158234 -0.08185,-0.05457 -0.198042,-0.07973 -0.276414,-0.118675 -0.06789,-0.03373 -0.07184,-0.09658 -0.158233,-0.118183 -0.0698,-0.01745 -0.174212,0.03127 -0.237351,0 -0.08465,-0.04193 -0.05312,-0.08334 -0.15382,-0.117446 -0.03192,-0.01081 -0.07484,0.01082 -0.106757,0 -0.226904,-0.07693 -0.49736,-0.146474 -0.671011,-0.313008 -0.05729,-0.05495 -0.12224,-0.29338 -0.189503,-0.383065 -0.173715,-0.231619 -0.315754,-0.432151 -0.428129,-0.658311 -0.04842,-0.09744 -0.176267,-0.186398 -0.23686,-0.276909 -0.023,-0.03435 -0.01617,-0.08327 -0.03906,-0.117687 -0.05903,-0.08873 -0.193632,-0.11749 -0.272234,-0.1575 -0.10432,-0.0531 -0.137487,-0.187387 -0.195921,-0.275038 -0.04694,-0.07042 -0.259272,-0.204524 -0.27323,-0.230259 -0.02045,-0.03771 -0.05767,-0.05944 -0.07656,-0.116118 -0.0083,-0.02502 0.01463,-0.05717 0,-0.07912 -0.03679,-0.05519 -0.179525,-0.100409 -0.23735,-0.158234 -0.109627,-0.109627 -0.07807,-0.07596 -0.118675,-0.197792 -0.02305,-0.06916 -0.152577,-0.0888 -0.19729,-0.118675 -0.04632,-0.03095 -0.06532,-0.100558 -0.118173,-0.118175 -0.0753,-0.0251 -0.129497,-0.01303 -0.197792,-0.07912 -0.06302,-0.06098 -0.179467,-0.222701 -0.258023,-0.340536 -0.02313,-0.0347 -0.01007,-0.08919 -0.03956,-0.118675 -0.020849,-0.02085 -0.058268,-0.01871 -0.079117,-0.03956 -0.017514,-0.01751 -0.024645,-0.13081 -0.038822,-0.142594 -0.1001047,-0.08321 -0.2297348,-0.206796 -0.3100715,-0.310064 -0.00804,-0.01033 -0.3532871,-0.2456 -0.4083929,-0.286929 -0.058027,-0.04352 -0.188153,-0.07108 -0.23045,-0.115225 -0.030256,-0.03158 -0.1587737,-0.622338 -0.1959234,-0.733787 -0.06108,-0.183239 -0.4169902,-1.257927 -0.3159724,-1.450354 0.071559,-0.136311 0.1871558,-0.291075 0.2290183,-0.458525 0.034405,-0.13762 -0.05026,-0.02309 0.039558,-0.158234 0.04658,-0.07009 0.1586249,-0.156683 0.2094153,-0.208701 0.1399989,-0.143381 0.3358655,-0.447234 0.4327813,-0.628212 0.020118,-0.03757 0.019359,-0.101369 0.039063,-0.140776 0.029908,-0.05981 0.1137014,-0.09436 0.1505509,-0.150551 0.087296,-0.133104 0.1878848,-0.262456 0.2754338,-0.393369 0.066458,-0.09937 0.2548896,-0.423129 0.3545486,-0.472487 0.07295,-0.03613 0.155866,-0.076007 0.235138,-0.1172048 0.149811,-0.077856 0.415073,0.053757 0.576343,0 0.368798,-0.1229327 1.41674,-0.5639899 1.798401,-0.4329407 0.172586,0.05926 0.329807,0.180151 0.49542,0.2329236 0.119992,0.038235 0.279389,0.08077 0.395584,0.1582337 0.06335,0.042235 0.185306,0.1098832 0.230498,0.1550732 0.0851,0.0851 0.118259,0.17731 0.237351,0.236856 0.03868,0.01934 0.152948,0.0397 0.181951,0.06925 0.0092,0.0094 -0.0091,0.03001 0,0.03956 0.03713,0.03897 0.179797,0.128347 0.235482,0.156365 0.03422,0.01722 0.106224,-0.0016 0.132966,0.03175 0.04373,0.05447 0.08262,0.104732 0.156773,0.15422 0.02089,0.01394 0.138671,0.06069 0.153325,0.07544 0.03246,0.03266 0.08392,0.184969 0.11818,0.236359 0.04494,0.0674 0.101736,0.180501 0.158234,0.237351 0.0092,0.0092 0.03327,-0.01166 0.03907,0 0.01166,0.02347 -0.01175,0.0552 0,0.07863 0.04006,0.07986 0.07887,0.05896 0.118676,0.118675 0.0228,0.0342 0.01049,0.08774 0.03956,0.116808 0.210272,0.210279 0.473503,0.228759 0.779816,0.111843 z"
       id="path1057" />
  </g>
</svg>
